<?xml version="1.0" encoding="utf-8" standalone="no"?>
<!DOCTYPE svg PUBLIC "-//W3C//DTD SVG 1.1//EN"
  "http://www.w3.org/Graphics/SVG/1.1/DTD/svg11.dtd">
<svg xmlns:xlink="http://www.w3.org/1999/xlink" width="506.339141pt" height="510.636562pt" viewBox="0 0 506.339141 510.636562" xmlns="http://www.w3.org/2000/svg" version="1.1">
 <metadata>
  <rdf:RDF xmlns:dc="http://purl.org/dc/elements/1.1/" xmlns:cc="http://creativecommons.org/ns#" xmlns:rdf="http://www.w3.org/1999/02/22-rdf-syntax-ns#">
   <cc:Work>
    <dc:type rdf:resource="http://purl.org/dc/dcmitype/StillImage"/>
    <dc:date>2026-09-05T11:53:39.451362</dc:date>
    <dc:format>image/svg+xml</dc:format>
    <dc:creator>
     <cc:Agent>
      <dc:title>Matplotlib v3.11.1, https://matplotlib.org/</dc:title>
     </cc:Agent>
    </dc:creator>
   </cc:Work>
  </rdf:RDF>
 </metadata>
 <defs>
  <style type="text/css">*{stroke-linejoin: round; stroke-linecap: butt}</style>
 </defs>
 <g id="figure_1">
  <g id="patch_1">
   <path d="M 0 510.636562 
L 506.339141 510.636562 
L 506.339141 0 
L 0 0 
z
" style="fill: #ffffff"/>
  </g>
  <g id="axes_1">
   <g id="patch_2">
    <path d="M 52.483594 472.435781 
L 486.997734 472.435781 
L 486.997734 37.921641 
L 52.483594 37.921641 
z
" style="fill: #ffffff"/>
   </g>
   <g id="PathCollection_1">
    <path d="M 432.914795 264.734755 
C 433.528927 264.734755 434.11799 264.490757 434.552247 264.0565 
C 434.986504 263.622242 435.230502 263.03318 435.230502 262.419048 
C 435.230502 261.804915 434.986504 261.215853 434.552247 260.781595 
C 434.11799 260.347338 433.528927 260.10334 432.914795 260.10334 
C 432.300662 260.10334 431.7116 260.347338 431.277342 260.781595 
C 430.843085 261.215853 430.599088 261.804915 430.599088 262.419048 
C 430.599088 263.03318 430.843085 263.622242 431.277342 264.0565 
C 431.7116 264.490757 432.300662 264.734755 432.914795 264.734755 
z
" clip-path="url(#p043ecf887e)" style="fill: #1f77b4; stroke: #1f77b4"/>
    <path d="M 337.637292 473.289397 
C 338.328222 473.289397 338.990945 473.014888 339.479506 472.526327 
C 339.968066 472.037767 340.242576 471.375043 340.242576 470.684114 
C 340.242576 469.993185 339.968066 469.330462 339.479506 468.841901 
C 338.990945 468.35334 338.328222 468.078831 337.637292 468.078831 
C 336.946363 468.078831 336.28364 468.35334 335.795079 468.841901 
C 335.306518 469.330462 335.032009 469.993185 335.032009 470.684114 
C 335.032009 471.375043 335.306518 472.037767 335.795079 472.526327 
C 336.28364 473.014888 336.946363 473.289397 337.637292 473.289397 
z
" clip-path="url(#p043ecf887e)" style="fill: #1f77b4; stroke: #1f77b4"/>
    <path d="M 266.249092 248.149625 
C 266.932987 248.149625 267.588963 247.877911 268.07255 247.394324 
C 268.556137 246.910737 268.827851 246.254761 268.827851 245.570866 
C 268.827851 244.886971 268.556137 244.230994 268.07255 243.747407 
C 267.588963 243.263821 266.932987 242.992106 266.249092 242.992106 
C 265.565197 242.992106 264.90922 243.263821 264.425634 243.747407 
C 263.942047 244.230994 263.670332 244.886971 263.670332 245.570866 
C 263.670332 246.254761 263.942047 246.910737 264.425634 247.394324 
C 264.90922 247.877911 265.565197 248.149625 266.249092 248.149625 
z
" clip-path="url(#p043ecf887e)" style="fill: #1f77b4; stroke: #1f77b4"/>
    <path d="M 109.738025 343.753961 
C 110.218877 343.753961 110.680099 343.562917 111.020113 343.222903 
C 111.360127 342.882889 111.551171 342.421667 111.551171 341.940815 
C 111.551171 341.459963 111.360127 340.99874 111.020113 340.658727 
C 110.680099 340.318713 110.218877 340.127668 109.738025 340.127668 
C 109.257173 340.127668 108.79595 340.318713 108.455937 340.658727 
C 108.115923 340.99874 107.924878 341.459963 107.924878 341.940815 
C 107.924878 342.421667 108.115923 342.882889 108.455937 343.222903 
C 108.79595 343.562917 109.257173 343.753961 109.738025 343.753961 
z
" clip-path="url(#p043ecf887e)" style="fill: #1f77b4; stroke: #1f77b4"/>
    <path d="M 52.268643 226.284341 
C 53.089809 226.284341 53.877454 225.958088 54.458106 225.377435 
C 55.038758 224.796783 55.365011 224.009139 55.365011 223.187972 
C 55.365011 222.366805 55.038758 221.579161 54.458106 220.998509 
C 53.877454 220.417856 53.089809 220.091603 52.268643 220.091603 
C 51.447476 220.091603 50.659832 220.417856 50.079179 220.998509 
C 49.498527 221.579161 49.172274 222.366805 49.172274 223.187972 
C 49.172274 224.009139 49.498527 224.796783 50.079179 225.377435 
C 50.659832 225.958088 51.447476 226.284341 52.268643 226.284341 
z
" clip-path="url(#p043ecf887e)" style="fill: #1f77b4; stroke: #1f77b4"/>
   </g>
   <g id="PathCollection_2">
    <defs>
     <path id="m97d671bb92" d="M -5 0 
L 5 0 
M 0 5 
L 0 -5 
" style="stroke: #ff7f0e; stroke-width: 1.5"/>
    </defs>
    <g clip-path="url(#p043ecf887e)">
     <use xlink:href="#m97d671bb92" x="269.740664" y="255.178711" style="fill: #ff7f0e; stroke: #ff7f0e; stroke-width: 1.5"/>
    </g>
   </g>
   <g id="patch_3">
    <path d="M 269.740664 472.435781 
C 212.123416 472.435781 156.858264 449.544206 116.116716 408.802659 
C 75.375169 368.061111 52.483594 312.795959 52.483594 255.178711 
C 52.483594 197.561462 75.375169 142.29631 116.116716 101.554763 
C 156.858264 60.813216 212.123416 37.921641 269.740664 37.921641 
C 327.357913 37.921641 382.623065 60.813216 423.364612 101.554763 
C 464.106159 142.29631 486.997734 197.561462 486.997734 255.178711 
C 486.997734 312.795959 464.106159 368.061111 423.364612 408.802659 
C 382.623065 449.544206 327.357913 472.435781 269.740664 472.435781 
L 269.740664 472.435781 
z
" clip-path="url(#p043ecf887e)" style="fill: none; stroke: #000000; stroke-linejoin: miter"/>
   </g>
   <g id="matplotlib.axis_1">
    <g id="xtick_1">
     <g id="line2d_1">
      <defs>
       <path id="m511a99809f" d="M 0 0 
L 0 3.5 
" style="stroke: #000000; stroke-width: 0.8"/>
      </defs>
      <g>
       <use xlink:href="#m511a99809f" x="486.997734" y="472.435781" style="stroke: #000000; stroke-width: 0.8"/>
      </g>
     </g>
     <g id="text_1">
      <!-- −0.6 -->
      <g transform="translate(474.856328 487.033437) scale(0.1 -0.1)">
       <defs>
        <path id="DejaVuSans-c9c" d="M 678 2272 
L 4684 2272 
L 4684 1741 
L 678 1741 
L 678 2272 
z
" transform="scale(0.015625)"/>
        <path id="DejaVuSans-13" d="M 2034 4250 
Q 1547 4250 1301 3770 
Q 1056 3291 1056 2328 
Q 1056 1369 1301 889 
Q 1547 409 2034 409 
Q 2525 409 2770 889 
Q 3016 1369 3016 2328 
Q 3016 3291 2770 3770 
Q 2525 4250 2034 4250 
z
M 2034 4750 
Q 2819 4750 3233 4129 
Q 3647 3509 3647 2328 
Q 3647 1150 3233 529 
Q 2819 -91 2034 -91 
Q 1250 -91 836 529 
Q 422 1150 422 2328 
Q 422 3509 836 4129 
Q 1250 4750 2034 4750 
z
" transform="scale(0.015625)"/>
        <path id="DejaVuSans-11" d="M 684 794 
L 1344 794 
L 1344 0 
L 684 0 
L 684 794 
z
" transform="scale(0.015625)"/>
        <path id="DejaVuSans-19" d="M 2113 2584 
Q 1688 2584 1439 2293 
Q 1191 2003 1191 1497 
Q 1191 994 1439 701 
Q 1688 409 2113 409 
Q 2538 409 2786 701 
Q 3034 994 3034 1497 
Q 3034 2003 2786 2293 
Q 2538 2584 2113 2584 
z
M 3366 4563 
L 3366 3988 
Q 3128 4100 2886 4159 
Q 2644 4219 2406 4219 
Q 1781 4219 1451 3797 
Q 1122 3375 1075 2522 
Q 1259 2794 1537 2939 
Q 1816 3084 2150 3084 
Q 2853 3084 3261 2657 
Q 3669 2231 3669 1497 
Q 3669 778 3244 343 
Q 2819 -91 2113 -91 
Q 1303 -91 875 529 
Q 447 1150 447 2328 
Q 447 3434 972 4092 
Q 1497 4750 2381 4750 
Q 2619 4750 2861 4703 
Q 3103 4656 3366 4563 
z
" transform="scale(0.015625)"/>
       </defs>
       <use xlink:href="#DejaVuSans-c9c"/>
       <use xlink:href="#DejaVuSans-13" transform="translate(83.796875 0)"/>
       <use xlink:href="#DejaVuSans-11" transform="translate(147.421875 0)"/>
       <use xlink:href="#DejaVuSans-19" transform="translate(179.203125 0)"/>
      </g>
     </g>
    </g>
    <g id="xtick_2">
     <g id="line2d_2">
      <g>
       <use xlink:href="#m511a99809f" x="414.578711" y="472.435781" style="stroke: #000000; stroke-width: 0.8"/>
      </g>
     </g>
     <g id="text_2">
      <!-- −0.4 -->
      <g transform="translate(402.437305 487.033437) scale(0.1 -0.1)">
       <defs>
        <path id="DejaVuSans-17" d="M 2419 4116 
L 825 1625 
L 2419 1625 
L 2419 4116 
z
M 2253 4666 
L 3047 4666 
L 3047 1625 
L 3713 1625 
L 3713 1100 
L 3047 1100 
L 3047 0 
L 2419 0 
L 2419 1100 
L 313 1100 
L 313 1709 
L 2253 4666 
z
" transform="scale(0.015625)"/>
       </defs>
       <use xlink:href="#DejaVuSans-c9c"/>
       <use xlink:href="#DejaVuSans-13" transform="translate(83.796875 0)"/>
       <use xlink:href="#DejaVuSans-11" transform="translate(147.421875 0)"/>
       <use xlink:href="#DejaVuSans-17" transform="translate(179.203125 0)"/>
      </g>
     </g>
    </g>
    <g id="xtick_3">
     <g id="line2d_3">
      <g>
       <use xlink:href="#m511a99809f" x="342.159688" y="472.435781" style="stroke: #000000; stroke-width: 0.8"/>
      </g>
     </g>
     <g id="text_3">
      <!-- −0.2 -->
      <g transform="translate(330.018281 487.033437) scale(0.1 -0.1)">
       <defs>
        <path id="DejaVuSans-15" d="M 1228 531 
L 3431 531 
L 3431 0 
L 469 0 
L 469 531 
Q 828 903 1448 1529 
Q 2069 2156 2228 2338 
Q 2531 2678 2651 2914 
Q 2772 3150 2772 3378 
Q 2772 3750 2511 3984 
Q 2250 4219 1831 4219 
Q 1534 4219 1204 4116 
Q 875 4013 500 3803 
L 500 4441 
Q 881 4594 1212 4672 
Q 1544 4750 1819 4750 
Q 2544 4750 2975 4387 
Q 3406 4025 3406 3419 
Q 3406 3131 3298 2873 
Q 3191 2616 2906 2266 
Q 2828 2175 2409 1742 
Q 1991 1309 1228 531 
z
" transform="scale(0.015625)"/>
       </defs>
       <use xlink:href="#DejaVuSans-c9c"/>
       <use xlink:href="#DejaVuSans-13" transform="translate(83.796875 0)"/>
       <use xlink:href="#DejaVuSans-11" transform="translate(147.421875 0)"/>
       <use xlink:href="#DejaVuSans-15" transform="translate(179.203125 0)"/>
      </g>
     </g>
    </g>
    <g id="xtick_4">
     <g id="line2d_4">
      <g>
       <use xlink:href="#m511a99809f" x="269.740664" y="472.435781" style="stroke: #000000; stroke-width: 0.8"/>
      </g>
     </g>
     <g id="text_4">
      <!-- 0.0 -->
      <g transform="translate(261.789102 487.033437) scale(0.1 -0.1)">
       <use xlink:href="#DejaVuSans-13"/>
       <use xlink:href="#DejaVuSans-11" transform="translate(63.625 0)"/>
       <use xlink:href="#DejaVuSans-13" transform="translate(95.40625 0)"/>
      </g>
     </g>
    </g>
    <g id="xtick_5">
     <g id="line2d_5">
      <g>
       <use xlink:href="#m511a99809f" x="197.321641" y="472.435781" style="stroke: #000000; stroke-width: 0.8"/>
      </g>
     </g>
     <g id="text_5">
      <!-- 0.2 -->
      <g transform="translate(189.370078 487.033437) scale(0.1 -0.1)">
       <use xlink:href="#DejaVuSans-13"/>
       <use xlink:href="#DejaVuSans-11" transform="translate(63.625 0)"/>
       <use xlink:href="#DejaVuSans-15" transform="translate(95.40625 0)"/>
      </g>
     </g>
    </g>
    <g id="xtick_6">
     <g id="line2d_6">
      <g>
       <use xlink:href="#m511a99809f" x="124.902617" y="472.435781" style="stroke: #000000; stroke-width: 0.8"/>
      </g>
     </g>
     <g id="text_6">
      <!-- 0.4 -->
      <g transform="translate(116.951055 487.033437) scale(0.1 -0.1)">
       <use xlink:href="#DejaVuSans-13"/>
       <use xlink:href="#DejaVuSans-11" transform="translate(63.625 0)"/>
       <use xlink:href="#DejaVuSans-17" transform="translate(95.40625 0)"/>
      </g>
     </g>
    </g>
    <g id="xtick_7">
     <g id="line2d_7">
      <g>
       <use xlink:href="#m511a99809f" x="52.483594" y="472.435781" style="stroke: #000000; stroke-width: 0.8"/>
      </g>
     </g>
     <g id="text_7">
      <!-- 0.6 -->
      <g transform="translate(44.532031 487.033437) scale(0.1 -0.1)">
       <use xlink:href="#DejaVuSans-13"/>
       <use xlink:href="#DejaVuSans-11" transform="translate(63.625 0)"/>
       <use xlink:href="#DejaVuSans-19" transform="translate(95.40625 0)"/>
      </g>
     </g>
    </g>
    <g id="text_8">
     <!-- East ←   angular offset   → West -->
     <g transform="translate(190.749258 501.034219) scale(0.1 -0.1)">
      <defs>
       <path id="DejaVuSans-28" d="M 628 4666 
L 3578 4666 
L 3578 4134 
L 1259 4134 
L 1259 2753 
L 3481 2753 
L 3481 2222 
L 1259 2222 
L 1259 531 
L 3634 531 
L 3634 0 
L 628 0 
L 628 4666 
z
" transform="scale(0.015625)"/>
       <path id="DejaVuSans-44" d="M 2194 1759 
Q 1497 1759 1228 1600 
Q 959 1441 959 1056 
Q 959 750 1161 570 
Q 1363 391 1709 391 
Q 2188 391 2477 730 
Q 2766 1069 2766 1631 
L 2766 1759 
L 2194 1759 
z
M 3341 1997 
L 3341 0 
L 2766 0 
L 2766 531 
Q 2569 213 2275 61 
Q 1981 -91 1556 -91 
Q 1019 -91 701 211 
Q 384 513 384 1019 
Q 384 1609 779 1909 
Q 1175 2209 1959 2209 
L 2766 2209 
L 2766 2266 
Q 2766 2663 2505 2880 
Q 2244 3097 1772 3097 
Q 1472 3097 1187 3025 
Q 903 2953 641 2809 
L 641 3341 
Q 956 3463 1253 3523 
Q 1550 3584 1831 3584 
Q 2591 3584 2966 3190 
Q 3341 2797 3341 1997 
z
" transform="scale(0.015625)"/>
       <path id="DejaVuSans-56" d="M 2834 3397 
L 2834 2853 
Q 2591 2978 2328 3040 
Q 2066 3103 1784 3103 
Q 1356 3103 1142 2972 
Q 928 2841 928 2578 
Q 928 2378 1081 2264 
Q 1234 2150 1697 2047 
L 1894 2003 
Q 2506 1872 2764 1633 
Q 3022 1394 3022 966 
Q 3022 478 2636 193 
Q 2250 -91 1575 -91 
Q 1294 -91 989 -36 
Q 684 19 347 128 
L 347 722 
Q 666 556 975 473 
Q 1284 391 1588 391 
Q 1994 391 2212 530 
Q 2431 669 2431 922 
Q 2431 1156 2273 1281 
Q 2116 1406 1581 1522 
L 1381 1569 
Q 847 1681 609 1914 
Q 372 2147 372 2553 
Q 372 3047 722 3315 
Q 1072 3584 1716 3584 
Q 2034 3584 2315 3537 
Q 2597 3491 2834 3397 
z
" transform="scale(0.015625)"/>
       <path id="DejaVuSans-57" d="M 1172 4494 
L 1172 3500 
L 2356 3500 
L 2356 3053 
L 1172 3053 
L 1172 1153 
Q 1172 725 1289 603 
Q 1406 481 1766 481 
L 2356 481 
L 2356 0 
L 1766 0 
Q 1100 0 847 248 
Q 594 497 594 1153 
L 594 3053 
L 172 3053 
L 172 3500 
L 594 3500 
L 594 4494 
L 1172 4494 
z
" transform="scale(0.015625)"/>
       <path id="DejaVuSans-3" transform="scale(0.015625)"/>
       <path id="DejaVuSans-c1a" d="M 313 1866 
L 313 2147 
L 1541 3375 
L 1916 3000 
L 1188 2272 
L 4997 2272 
L 4997 1741 
L 1188 1741 
L 1916 1013 
L 1541 638 
L 313 1866 
z
" transform="scale(0.015625)"/>
       <path id="DejaVuSans-51" d="M 3513 2113 
L 3513 0 
L 2938 0 
L 2938 2094 
Q 2938 2591 2744 2837 
Q 2550 3084 2163 3084 
Q 1697 3084 1428 2787 
Q 1159 2491 1159 1978 
L 1159 0 
L 581 0 
L 581 3500 
L 1159 3500 
L 1159 2956 
Q 1366 3272 1645 3428 
Q 1925 3584 2291 3584 
Q 2894 3584 3203 3211 
Q 3513 2838 3513 2113 
z
" transform="scale(0.015625)"/>
       <path id="DejaVuSans-4a" d="M 2906 1791 
Q 2906 2416 2648 2759 
Q 2391 3103 1925 3103 
Q 1463 3103 1205 2759 
Q 947 2416 947 1791 
Q 947 1169 1205 825 
Q 1463 481 1925 481 
Q 2391 481 2648 825 
Q 2906 1169 2906 1791 
z
M 3481 434 
Q 3481 -459 3084 -895 
Q 2688 -1331 1869 -1331 
Q 1566 -1331 1297 -1286 
Q 1028 -1241 775 -1147 
L 775 -588 
Q 1028 -725 1275 -790 
Q 1522 -856 1778 -856 
Q 2344 -856 2625 -561 
Q 2906 -266 2906 331 
L 2906 616 
Q 2728 306 2450 153 
Q 2172 0 1784 0 
Q 1141 0 747 490 
Q 353 981 353 1791 
Q 353 2603 747 3093 
Q 1141 3584 1784 3584 
Q 2172 3584 2450 3431 
Q 2728 3278 2906 2969 
L 2906 3500 
L 3481 3500 
L 3481 434 
z
" transform="scale(0.015625)"/>
       <path id="DejaVuSans-58" d="M 544 1381 
L 544 3500 
L 1119 3500 
L 1119 1403 
Q 1119 906 1312 657 
Q 1506 409 1894 409 
Q 2359 409 2629 706 
Q 2900 1003 2900 1516 
L 2900 3500 
L 3475 3500 
L 3475 0 
L 2900 0 
L 2900 538 
Q 2691 219 2414 64 
Q 2138 -91 1772 -91 
Q 1169 -91 856 284 
Q 544 659 544 1381 
z
M 1991 3584 
L 1991 3584 
z
" transform="scale(0.015625)"/>
       <path id="DejaVuSans-4f" d="M 603 4863 
L 1178 4863 
L 1178 0 
L 603 0 
L 603 4863 
z
" transform="scale(0.015625)"/>
       <path id="DejaVuSans-55" d="M 2631 2963 
Q 2534 3019 2420 3045 
Q 2306 3072 2169 3072 
Q 1681 3072 1420 2755 
Q 1159 2438 1159 1844 
L 1159 0 
L 581 0 
L 581 3500 
L 1159 3500 
L 1159 2956 
Q 1341 3275 1631 3429 
Q 1922 3584 2338 3584 
Q 2397 3584 2469 3576 
Q 2541 3569 2628 3553 
L 2631 2963 
z
" transform="scale(0.015625)"/>
       <path id="DejaVuSans-52" d="M 1959 3097 
Q 1497 3097 1228 2736 
Q 959 2375 959 1747 
Q 959 1119 1226 758 
Q 1494 397 1959 397 
Q 2419 397 2687 759 
Q 2956 1122 2956 1747 
Q 2956 2369 2687 2733 
Q 2419 3097 1959 3097 
z
M 1959 3584 
Q 2709 3584 3137 3096 
Q 3566 2609 3566 1747 
Q 3566 888 3137 398 
Q 2709 -91 1959 -91 
Q 1206 -91 779 398 
Q 353 888 353 1747 
Q 353 2609 779 3096 
Q 1206 3584 1959 3584 
z
" transform="scale(0.015625)"/>
       <path id="DejaVuSans-13ae" d="M 4531 4863 
L 4531 4384 
L 3981 4384 
Q 3672 4384 3551 4259 
Q 3431 4134 3431 3809 
L 3431 3500 
L 4378 3500 
L 4378 3053 
L 3431 3053 
L 3431 0 
L 2853 0 
L 2853 3053 
L 1275 3053 
L 1275 0 
L 697 0 
L 697 3053 
L 147 3053 
L 147 3500 
L 697 3500 
L 697 3744 
Q 697 4328 969 4595 
Q 1241 4863 1831 4863 
L 2375 4863 
L 2375 4384 
L 1825 4384 
Q 1516 4384 1394 4259 
Q 1275 4134 1275 3809 
L 1275 3500 
L 2853 3500 
L 2853 3744 
Q 2853 4328 3125 4595 
Q 3397 4863 3988 4863 
L 4531 4863 
z
" transform="scale(0.015625)"/>
       <path id="DejaVuSans-48" d="M 3597 1894 
L 3597 1613 
L 953 1613 
Q 991 1019 1311 708 
Q 1631 397 2203 397 
Q 2534 397 2845 478 
Q 3156 559 3463 722 
L 3463 178 
Q 3153 47 2828 -22 
Q 2503 -91 2169 -91 
Q 1331 -91 842 396 
Q 353 884 353 1716 
Q 353 2575 817 3079 
Q 1281 3584 2069 3584 
Q 2775 3584 3186 3129 
Q 3597 2675 3597 1894 
z
M 3022 2063 
Q 3016 2534 2758 2815 
Q 2500 3097 2075 3097 
Q 1594 3097 1305 2825 
Q 1016 2553 972 2059 
L 3022 2063 
z
" transform="scale(0.015625)"/>
       <path id="DejaVuSans-c1c" d="M 5050 2147 
L 5050 1866 
L 3822 638 
L 3447 1013 
L 4175 1741 
L 366 1741 
L 366 2272 
L 4175 2272 
L 3447 3000 
L 3822 3375 
L 5050 2147 
z
" transform="scale(0.015625)"/>
       <path id="DejaVuSans-3a" d="M 213 4666 
L 850 4666 
L 1831 722 
L 2809 4666 
L 3519 4666 
L 4500 722 
L 5478 4666 
L 6119 4666 
L 4947 0 
L 4153 0 
L 3169 4050 
L 2175 0 
L 1381 0 
L 213 4666 
z
" transform="scale(0.015625)"/>
      </defs>
      <use xlink:href="#DejaVuSans-28"/>
      <use xlink:href="#DejaVuSans-44" transform="translate(63.1875 0)"/>
      <use xlink:href="#DejaVuSans-56" transform="translate(124.46875 0)"/>
      <use xlink:href="#DejaVuSans-57" transform="translate(176.5625 0)"/>
      <use xlink:href="#DejaVuSans-3" transform="translate(215.765625 0)"/>
      <use xlink:href="#DejaVuSans-c1a" transform="translate(247.546875 0)"/>
      <use xlink:href="#DejaVuSans-3" transform="translate(331.34375 0)"/>
      <use xlink:href="#DejaVuSans-3" transform="translate(363.125 0)"/>
      <use xlink:href="#DejaVuSans-3" transform="translate(394.90625 0)"/>
      <use xlink:href="#DejaVuSans-44" transform="translate(426.6875 0)"/>
      <use xlink:href="#DejaVuSans-51" transform="translate(487.96875 0)"/>
      <use xlink:href="#DejaVuSans-4a" transform="translate(551.34375 0)"/>
      <use xlink:href="#DejaVuSans-58" transform="translate(614.828125 0)"/>
      <use xlink:href="#DejaVuSans-4f" transform="translate(678.203125 0)"/>
      <use xlink:href="#DejaVuSans-44" transform="translate(705.984375 0)"/>
      <use xlink:href="#DejaVuSans-55" transform="translate(767.265625 0)"/>
      <use xlink:href="#DejaVuSans-3" transform="translate(808.375 0)"/>
      <use xlink:href="#DejaVuSans-52" transform="translate(840.15625 0)"/>
      <use xlink:href="#DejaVuSans-13ae" transform="translate(901.34375 0)"/>
      <use xlink:href="#DejaVuSans-56" transform="translate(970.234375 0)"/>
      <use xlink:href="#DejaVuSans-48" transform="translate(1022.328125 0)"/>
      <use xlink:href="#DejaVuSans-57" transform="translate(1083.859375 0)"/>
      <use xlink:href="#DejaVuSans-3" transform="translate(1123.0625 0)"/>
      <use xlink:href="#DejaVuSans-3" transform="translate(1154.84375 0)"/>
      <use xlink:href="#DejaVuSans-3" transform="translate(1186.625 0)"/>
      <use xlink:href="#DejaVuSans-c1c" transform="translate(1218.40625 0)"/>
      <use xlink:href="#DejaVuSans-3" transform="translate(1302.203125 0)"/>
      <use xlink:href="#DejaVuSans-3a" transform="translate(1333.984375 0)"/>
      <use xlink:href="#DejaVuSans-48" transform="translate(1427 0)"/>
      <use xlink:href="#DejaVuSans-56" transform="translate(1488.53125 0)"/>
      <use xlink:href="#DejaVuSans-57" transform="translate(1540.625 0)"/>
     </g>
    </g>
   </g>
   <g id="matplotlib.axis_2">
    <g id="ytick_1">
     <g id="line2d_8">
      <defs>
       <path id="mcb34cde0ba" d="M 0 0 
L -3.5 0 
" style="stroke: #000000; stroke-width: 0.8"/>
      </defs>
      <g>
       <use xlink:href="#mcb34cde0ba" x="52.483594" y="472.435781" style="stroke: #000000; stroke-width: 0.8"/>
      </g>
     </g>
     <g id="text_9">
      <!-- −0.6 -->
      <g transform="translate(21.200781 476.234609) scale(0.1 -0.1)">
       <use xlink:href="#DejaVuSans-c9c"/>
       <use xlink:href="#DejaVuSans-13" transform="translate(83.796875 0)"/>
       <use xlink:href="#DejaVuSans-11" transform="translate(147.421875 0)"/>
       <use xlink:href="#DejaVuSans-19" transform="translate(179.203125 0)"/>
      </g>
     </g>
    </g>
    <g id="ytick_2">
     <g id="line2d_9">
      <g>
       <use xlink:href="#mcb34cde0ba" x="52.483594" y="400.016758" style="stroke: #000000; stroke-width: 0.8"/>
      </g>
     </g>
     <g id="text_10">
      <!-- −0.4 -->
      <g transform="translate(21.200781 403.815586) scale(0.1 -0.1)">
       <use xlink:href="#DejaVuSans-c9c"/>
       <use xlink:href="#DejaVuSans-13" transform="translate(83.796875 0)"/>
       <use xlink:href="#DejaVuSans-11" transform="translate(147.421875 0)"/>
       <use xlink:href="#DejaVuSans-17" transform="translate(179.203125 0)"/>
      </g>
     </g>
    </g>
    <g id="ytick_3">
     <g id="line2d_10">
      <g>
       <use xlink:href="#mcb34cde0ba" x="52.483594" y="327.597734" style="stroke: #000000; stroke-width: 0.8"/>
      </g>
     </g>
     <g id="text_11">
      <!-- −0.2 -->
      <g transform="translate(21.200781 331.396562) scale(0.1 -0.1)">
       <use xlink:href="#DejaVuSans-c9c"/>
       <use xlink:href="#DejaVuSans-13" transform="translate(83.796875 0)"/>
       <use xlink:href="#DejaVuSans-11" transform="translate(147.421875 0)"/>
       <use xlink:href="#DejaVuSans-15" transform="translate(179.203125 0)"/>
      </g>
     </g>
    </g>
    <g id="ytick_4">
     <g id="line2d_11">
      <g>
       <use xlink:href="#mcb34cde0ba" x="52.483594" y="255.178711" style="stroke: #000000; stroke-width: 0.8"/>
      </g>
     </g>
     <g id="text_12">
      <!-- 0.0 -->
      <g transform="translate(29.580469 258.977539) scale(0.1 -0.1)">
       <use xlink:href="#DejaVuSans-13"/>
       <use xlink:href="#DejaVuSans-11" transform="translate(63.625 0)"/>
       <use xlink:href="#DejaVuSans-13" transform="translate(95.40625 0)"/>
      </g>
     </g>
    </g>
    <g id="ytick_5">
     <g id="line2d_12">
      <g>
       <use xlink:href="#mcb34cde0ba" x="52.483594" y="182.759687" style="stroke: #000000; stroke-width: 0.8"/>
      </g>
     </g>
     <g id="text_13">
      <!-- 0.2 -->
      <g transform="translate(29.580469 186.558516) scale(0.1 -0.1)">
       <use xlink:href="#DejaVuSans-13"/>
       <use xlink:href="#DejaVuSans-11" transform="translate(63.625 0)"/>
       <use xlink:href="#DejaVuSans-15" transform="translate(95.40625 0)"/>
      </g>
     </g>
    </g>
    <g id="ytick_6">
     <g id="line2d_13">
      <g>
       <use xlink:href="#mcb34cde0ba" x="52.483594" y="110.340664" style="stroke: #000000; stroke-width: 0.8"/>
      </g>
     </g>
     <g id="text_14">
      <!-- 0.4 -->
      <g transform="translate(29.580469 114.139492) scale(0.1 -0.1)">
       <use xlink:href="#DejaVuSans-13"/>
       <use xlink:href="#DejaVuSans-11" transform="translate(63.625 0)"/>
       <use xlink:href="#DejaVuSans-17" transform="translate(95.40625 0)"/>
      </g>
     </g>
    </g>
    <g id="ytick_7">
     <g id="line2d_14">
      <g>
       <use xlink:href="#mcb34cde0ba" x="52.483594" y="37.921641" style="stroke: #000000; stroke-width: 0.8"/>
      </g>
     </g>
     <g id="text_15">
      <!-- 0.6 -->
      <g transform="translate(29.580469 41.720469) scale(0.1 -0.1)">
       <use xlink:href="#DejaVuSans-13"/>
       <use xlink:href="#DejaVuSans-11" transform="translate(63.625 0)"/>
       <use xlink:href="#DejaVuSans-19" transform="translate(95.40625 0)"/>
      </g>
     </g>
    </g>
    <g id="text_16">
     <!-- South   angular offset   North -->
     <g transform="translate(14.798438 328.047461) rotate(-90) scale(0.1 -0.1)">
      <defs>
       <path id="DejaVuSans-36" d="M 3425 4513 
L 3425 3897 
Q 3066 4069 2747 4153 
Q 2428 4238 2131 4238 
Q 1616 4238 1336 4038 
Q 1056 3838 1056 3469 
Q 1056 3159 1242 3001 
Q 1428 2844 1947 2747 
L 2328 2669 
Q 3034 2534 3370 2195 
Q 3706 1856 3706 1288 
Q 3706 609 3251 259 
Q 2797 -91 1919 -91 
Q 1588 -91 1214 -16 
Q 841 59 441 206 
L 441 856 
Q 825 641 1194 531 
Q 1563 422 1919 422 
Q 2459 422 2753 634 
Q 3047 847 3047 1241 
Q 3047 1584 2836 1778 
Q 2625 1972 2144 2069 
L 1759 2144 
Q 1053 2284 737 2584 
Q 422 2884 422 3419 
Q 422 4038 858 4394 
Q 1294 4750 2059 4750 
Q 2388 4750 2728 4690 
Q 3069 4631 3425 4513 
z
" transform="scale(0.015625)"/>
       <path id="DejaVuSans-4b" d="M 3513 2113 
L 3513 0 
L 2938 0 
L 2938 2094 
Q 2938 2591 2744 2837 
Q 2550 3084 2163 3084 
Q 1697 3084 1428 2787 
Q 1159 2491 1159 1978 
L 1159 0 
L 581 0 
L 581 4863 
L 1159 4863 
L 1159 2956 
Q 1366 3272 1645 3428 
Q 1925 3584 2291 3584 
Q 2894 3584 3203 3211 
Q 3513 2838 3513 2113 
z
" transform="scale(0.015625)"/>
       <path id="DejaVuSans-31" d="M 628 4666 
L 1478 4666 
L 3547 763 
L 3547 4666 
L 4159 4666 
L 4159 0 
L 3309 0 
L 1241 3903 
L 1241 0 
L 628 0 
L 628 4666 
z
" transform="scale(0.015625)"/>
      </defs>
      <use xlink:href="#DejaVuSans-36"/>
      <use xlink:href="#DejaVuSans-52" transform="translate(63.484375 0)"/>
      <use xlink:href="#DejaVuSans-58" transform="translate(124.671875 0)"/>
      <use xlink:href="#DejaVuSans-57" transform="translate(188.046875 0)"/>
      <use xlink:href="#DejaVuSans-4b" transform="translate(227.25 0)"/>
      <use xlink:href="#DejaVuSans-3" transform="translate(290.625 0)"/>
      <use xlink:href="#DejaVuSans-3" transform="translate(322.40625 0)"/>
      <use xlink:href="#DejaVuSans-3" transform="translate(354.1875 0)"/>
      <use xlink:href="#DejaVuSans-44" transform="translate(385.96875 0)"/>
      <use xlink:href="#DejaVuSans-51" transform="translate(447.25 0)"/>
      <use xlink:href="#DejaVuSans-4a" transform="translate(510.625 0)"/>
      <use xlink:href="#DejaVuSans-58" transform="translate(574.109375 0)"/>
      <use xlink:href="#DejaVuSans-4f" transform="translate(637.484375 0)"/>
      <use xlink:href="#DejaVuSans-44" transform="translate(665.265625 0)"/>
      <use xlink:href="#DejaVuSans-55" transform="translate(726.546875 0)"/>
      <use xlink:href="#DejaVuSans-3" transform="translate(767.65625 0)"/>
      <use xlink:href="#DejaVuSans-52" transform="translate(799.4375 0)"/>
      <use xlink:href="#DejaVuSans-13ae" transform="translate(860.625 0)"/>
      <use xlink:href="#DejaVuSans-56" transform="translate(929.515625 0)"/>
      <use xlink:href="#DejaVuSans-48" transform="translate(981.609375 0)"/>
      <use xlink:href="#DejaVuSans-57" transform="translate(1043.140625 0)"/>
      <use xlink:href="#DejaVuSans-3" transform="translate(1082.34375 0)"/>
      <use xlink:href="#DejaVuSans-3" transform="translate(1114.125 0)"/>
      <use xlink:href="#DejaVuSans-3" transform="translate(1145.90625 0)"/>
      <use xlink:href="#DejaVuSans-31" transform="translate(1177.6875 0)"/>
      <use xlink:href="#DejaVuSans-52" transform="translate(1252.5 0)"/>
      <use xlink:href="#DejaVuSans-55" transform="translate(1313.6875 0)"/>
      <use xlink:href="#DejaVuSans-57" transform="translate(1354.796875 0)"/>
      <use xlink:href="#DejaVuSans-4b" transform="translate(1394 0)"/>
     </g>
    </g>
   </g>
   <g id="patch_4">
    <path d="M 52.483594 472.435781 
L 52.483594 37.921641 
" style="fill: none; stroke: #000000; stroke-width: 0.8; stroke-linejoin: miter; stroke-linecap: square"/>
   </g>
   <g id="patch_5">
    <path d="M 486.997734 472.435781 
L 486.997734 37.921641 
" style="fill: none; stroke: #000000; stroke-width: 0.8; stroke-linejoin: miter; stroke-linecap: square"/>
   </g>
   <g id="patch_6">
    <path d="M 52.483594 472.435781 
L 486.997734 472.435781 
" style="fill: none; stroke: #000000; stroke-width: 0.8; stroke-linejoin: miter; stroke-linecap: square"/>
   </g>
   <g id="patch_7">
    <path d="M 52.483594 37.921641 
L 486.997734 37.921641 
" style="fill: none; stroke: #000000; stroke-width: 0.8; stroke-linejoin: miter; stroke-linecap: square"/>
   </g>
   <g id="text_17">
    <!-- M35 · NGC 2168 -->
    <g transform="translate(220.703789 17.518359) scale(0.12 -0.12)">
     <defs>
      <path id="DejaVuSans-30" d="M 628 4666 
L 1569 4666 
L 2759 1491 
L 3956 4666 
L 4897 4666 
L 4897 0 
L 4281 0 
L 4281 4097 
L 3078 897 
L 2444 897 
L 1241 4097 
L 1241 0 
L 628 0 
L 628 4666 
z
" transform="scale(0.015625)"/>
      <path id="DejaVuSans-16" d="M 2597 2516 
Q 3050 2419 3304 2112 
Q 3559 1806 3559 1356 
Q 3559 666 3084 287 
Q 2609 -91 1734 -91 
Q 1441 -91 1130 -33 
Q 819 25 488 141 
L 488 750 
Q 750 597 1062 519 
Q 1375 441 1716 441 
Q 2309 441 2620 675 
Q 2931 909 2931 1356 
Q 2931 1769 2642 2001 
Q 2353 2234 1838 2234 
L 1294 2234 
L 1294 2753 
L 1863 2753 
Q 2328 2753 2575 2939 
Q 2822 3125 2822 3475 
Q 2822 3834 2567 4026 
Q 2313 4219 1838 4219 
Q 1578 4219 1281 4162 
Q 984 4106 628 3988 
L 628 4550 
Q 988 4650 1302 4700 
Q 1616 4750 1894 4750 
Q 2613 4750 3031 4423 
Q 3450 4097 3450 3541 
Q 3450 3153 3228 2886 
Q 3006 2619 2597 2516 
z
" transform="scale(0.015625)"/>
      <path id="DejaVuSans-18" d="M 691 4666 
L 3169 4666 
L 3169 4134 
L 1269 4134 
L 1269 2991 
Q 1406 3038 1543 3061 
Q 1681 3084 1819 3084 
Q 2600 3084 3056 2656 
Q 3513 2228 3513 1497 
Q 3513 744 3044 326 
Q 2575 -91 1722 -91 
Q 1428 -91 1123 -41 
Q 819 9 494 109 
L 494 744 
Q 775 591 1075 516 
Q 1375 441 1709 441 
Q 2250 441 2565 725 
Q 2881 1009 2881 1497 
Q 2881 1984 2565 2268 
Q 2250 2553 1709 2553 
Q 1456 2553 1204 2497 
Q 953 2441 691 2322 
L 691 4666 
z
" transform="scale(0.015625)"/>
      <path id="DejaVuSans-79" d="M 684 2619 
L 1344 2619 
L 1344 1825 
L 684 1825 
L 684 2619 
z
" transform="scale(0.015625)"/>
      <path id="DejaVuSans-2a" d="M 3809 666 
L 3809 1919 
L 2778 1919 
L 2778 2438 
L 4434 2438 
L 4434 434 
Q 4069 175 3628 42 
Q 3188 -91 2688 -91 
Q 1594 -91 976 548 
Q 359 1188 359 2328 
Q 359 3472 976 4111 
Q 1594 4750 2688 4750 
Q 3144 4750 3555 4637 
Q 3966 4525 4313 4306 
L 4313 3634 
Q 3963 3931 3569 4081 
Q 3175 4231 2741 4231 
Q 1884 4231 1454 3753 
Q 1025 3275 1025 2328 
Q 1025 1384 1454 906 
Q 1884 428 2741 428 
Q 3075 428 3337 486 
Q 3600 544 3809 666 
z
" transform="scale(0.015625)"/>
      <path id="DejaVuSans-26" d="M 4122 4306 
L 4122 3641 
Q 3803 3938 3442 4084 
Q 3081 4231 2675 4231 
Q 1875 4231 1450 3742 
Q 1025 3253 1025 2328 
Q 1025 1406 1450 917 
Q 1875 428 2675 428 
Q 3081 428 3442 575 
Q 3803 722 4122 1019 
L 4122 359 
Q 3791 134 3420 21 
Q 3050 -91 2638 -91 
Q 1578 -91 968 557 
Q 359 1206 359 2328 
Q 359 3453 968 4101 
Q 1578 4750 2638 4750 
Q 3056 4750 3426 4639 
Q 3797 4528 4122 4306 
z
" transform="scale(0.015625)"/>
      <path id="DejaVuSans-14" d="M 794 531 
L 1825 531 
L 1825 4091 
L 703 3866 
L 703 4441 
L 1819 4666 
L 2450 4666 
L 2450 531 
L 3481 531 
L 3481 0 
L 794 0 
L 794 531 
z
" transform="scale(0.015625)"/>
      <path id="DejaVuSans-1b" d="M 2034 2216 
Q 1584 2216 1326 1975 
Q 1069 1734 1069 1313 
Q 1069 891 1326 650 
Q 1584 409 2034 409 
Q 2484 409 2743 651 
Q 3003 894 3003 1313 
Q 3003 1734 2745 1975 
Q 2488 2216 2034 2216 
z
M 1403 2484 
Q 997 2584 770 2862 
Q 544 3141 544 3541 
Q 544 4100 942 4425 
Q 1341 4750 2034 4750 
Q 2731 4750 3128 4425 
Q 3525 4100 3525 3541 
Q 3525 3141 3298 2862 
Q 3072 2584 2669 2484 
Q 3125 2378 3379 2068 
Q 3634 1759 3634 1313 
Q 3634 634 3220 271 
Q 2806 -91 2034 -91 
Q 1263 -91 848 271 
Q 434 634 434 1313 
Q 434 1759 690 2068 
Q 947 2378 1403 2484 
z
M 1172 3481 
Q 1172 3119 1398 2916 
Q 1625 2713 2034 2713 
Q 2441 2713 2670 2916 
Q 2900 3119 2900 3481 
Q 2900 3844 2670 4047 
Q 2441 4250 2034 4250 
Q 1625 4250 1398 4047 
Q 1172 3844 1172 3481 
z
" transform="scale(0.015625)"/>
     </defs>
     <use xlink:href="#DejaVuSans-30"/>
     <use xlink:href="#DejaVuSans-16" transform="translate(86.28125 0)"/>
     <use xlink:href="#DejaVuSans-18" transform="translate(149.90625 0)"/>
     <use xlink:href="#DejaVuSans-3" transform="translate(213.53125 0)"/>
     <use xlink:href="#DejaVuSans-79" transform="translate(245.3125 0)"/>
     <use xlink:href="#DejaVuSans-3" transform="translate(277.09375 0)"/>
     <use xlink:href="#DejaVuSans-31" transform="translate(308.875 0)"/>
     <use xlink:href="#DejaVuSans-2a" transform="translate(383.6875 0)"/>
     <use xlink:href="#DejaVuSans-26" transform="translate(461.171875 0)"/>
     <use xlink:href="#DejaVuSans-3" transform="translate(531 0)"/>
     <use xlink:href="#DejaVuSans-15" transform="translate(562.78125 0)"/>
     <use xlink:href="#DejaVuSans-14" transform="translate(626.40625 0)"/>
     <use xlink:href="#DejaVuSans-19" transform="translate(690.03125 0)"/>
     <use xlink:href="#DejaVuSans-1b" transform="translate(753.65625 0)"/>
    </g>
    <!-- Eyepiece view · 6-inch telescope · 50× · 1.2° field -->
    <g transform="translate(120.143789 31.921641) scale(0.12 -0.12)">
     <defs>
      <path id="DejaVuSans-5c" d="M 2059 -325 
Q 1816 -950 1584 -1140 
Q 1353 -1331 966 -1331 
L 506 -1331 
L 506 -850 
L 844 -850 
Q 1081 -850 1212 -737 
Q 1344 -625 1503 -206 
L 1606 56 
L 191 3500 
L 800 3500 
L 1894 763 
L 2988 3500 
L 3597 3500 
L 2059 -325 
z
" transform="scale(0.015625)"/>
      <path id="DejaVuSans-53" d="M 1159 525 
L 1159 -1331 
L 581 -1331 
L 581 3500 
L 1159 3500 
L 1159 2969 
Q 1341 3281 1617 3432 
Q 1894 3584 2278 3584 
Q 2916 3584 3314 3078 
Q 3713 2572 3713 1747 
Q 3713 922 3314 415 
Q 2916 -91 2278 -91 
Q 1894 -91 1617 61 
Q 1341 213 1159 525 
z
M 3116 1747 
Q 3116 2381 2855 2742 
Q 2594 3103 2138 3103 
Q 1681 3103 1420 2742 
Q 1159 2381 1159 1747 
Q 1159 1113 1420 752 
Q 1681 391 2138 391 
Q 2594 391 2855 752 
Q 3116 1113 3116 1747 
z
" transform="scale(0.015625)"/>
      <path id="DejaVuSans-4c" d="M 603 3500 
L 1178 3500 
L 1178 0 
L 603 0 
L 603 3500 
z
M 603 4863 
L 1178 4863 
L 1178 4134 
L 603 4134 
L 603 4863 
z
" transform="scale(0.015625)"/>
      <path id="DejaVuSans-46" d="M 3122 3366 
L 3122 2828 
Q 2878 2963 2633 3030 
Q 2388 3097 2138 3097 
Q 1578 3097 1268 2742 
Q 959 2388 959 1747 
Q 959 1106 1268 751 
Q 1578 397 2138 397 
Q 2388 397 2633 464 
Q 2878 531 3122 666 
L 3122 134 
Q 2881 22 2623 -34 
Q 2366 -91 2075 -91 
Q 1284 -91 818 406 
Q 353 903 353 1747 
Q 353 2603 823 3093 
Q 1294 3584 2113 3584 
Q 2378 3584 2631 3529 
Q 2884 3475 3122 3366 
z
" transform="scale(0.015625)"/>
      <path id="DejaVuSans-59" d="M 191 3500 
L 800 3500 
L 1894 563 
L 2988 3500 
L 3597 3500 
L 2284 0 
L 1503 0 
L 191 3500 
z
" transform="scale(0.015625)"/>
      <path id="DejaVuSans-5a" d="M 269 3500 
L 844 3500 
L 1563 769 
L 2278 3500 
L 2956 3500 
L 3675 769 
L 4391 3500 
L 4966 3500 
L 4050 0 
L 3372 0 
L 2619 2869 
L 1863 0 
L 1184 0 
L 269 3500 
z
" transform="scale(0.015625)"/>
      <path id="DejaVuSans-10" d="M 313 2009 
L 1997 2009 
L 1997 1497 
L 313 1497 
L 313 2009 
z
" transform="scale(0.015625)"/>
      <path id="DejaVuSans-99" d="M 4488 3438 
L 3059 2003 
L 4488 575 
L 4116 197 
L 2681 1631 
L 1247 197 
L 878 575 
L 2303 2003 
L 878 3438 
L 1247 3816 
L 2681 2381 
L 4116 3816 
L 4488 3438 
z
" transform="scale(0.015625)"/>
      <path id="DejaVuSans-72" d="M 1600 4347 
Q 1350 4347 1178 4173 
Q 1006 4000 1006 3750 
Q 1006 3503 1178 3333 
Q 1350 3163 1600 3163 
Q 1850 3163 2022 3333 
Q 2194 3503 2194 3750 
Q 2194 3997 2020 4172 
Q 1847 4347 1600 4347 
z
M 1600 4750 
Q 1800 4750 1984 4673 
Q 2169 4597 2303 4453 
Q 2447 4313 2519 4134 
Q 2591 3956 2591 3750 
Q 2591 3338 2302 3052 
Q 2013 2766 1594 2766 
Q 1172 2766 890 3047 
Q 609 3328 609 3750 
Q 609 4169 896 4459 
Q 1184 4750 1600 4750 
z
" transform="scale(0.015625)"/>
      <path id="DejaVuSans-13af" d="M 3431 3500 
L 3431 0 
L 2853 0 
L 2853 3053 
L 1275 3053 
L 1275 0 
L 697 0 
L 697 3053 
L 147 3053 
L 147 3500 
L 697 3500 
L 697 3744 
Q 697 4316 967 4589 
Q 1238 4863 1797 4863 
L 2375 4863 
L 2375 4384 
L 1825 4384 
Q 1516 4384 1395 4259 
Q 1275 4134 1275 3809 
L 1275 3500 
L 3431 3500 
z
M 2853 4856 
L 3431 4856 
L 3431 4128 
L 2853 4128 
L 2853 4856 
z
" transform="scale(0.015625)"/>
      <path id="DejaVuSans-47" d="M 2906 2969 
L 2906 4863 
L 3481 4863 
L 3481 0 
L 2906 0 
L 2906 525 
Q 2725 213 2448 61 
Q 2172 -91 1784 -91 
Q 1150 -91 751 415 
Q 353 922 353 1747 
Q 353 2572 751 3078 
Q 1150 3584 1784 3584 
Q 2172 3584 2448 3432 
Q 2725 3281 2906 2969 
z
M 947 1747 
Q 947 1113 1208 752 
Q 1469 391 1925 391 
Q 2381 391 2643 752 
Q 2906 1113 2906 1747 
Q 2906 2381 2643 2742 
Q 2381 3103 1925 3103 
Q 1469 3103 1208 2742 
Q 947 2381 947 1747 
z
" transform="scale(0.015625)"/>
     </defs>
     <use xlink:href="#DejaVuSans-28"/>
     <use xlink:href="#DejaVuSans-5c" transform="translate(63.1875 0)"/>
     <use xlink:href="#DejaVuSans-48" transform="translate(122.375 0)"/>
     <use xlink:href="#DejaVuSans-53" transform="translate(183.90625 0)"/>
     <use xlink:href="#DejaVuSans-4c" transform="translate(247.390625 0)"/>
     <use xlink:href="#DejaVuSans-48" transform="translate(275.171875 0)"/>
     <use xlink:href="#DejaVuSans-46" transform="translate(336.703125 0)"/>
     <use xlink:href="#DejaVuSans-48" transform="translate(391.6875 0)"/>
     <use xlink:href="#DejaVuSans-3" transform="translate(453.21875 0)"/>
     <use xlink:href="#DejaVuSans-59" transform="translate(485 0)"/>
     <use xlink:href="#DejaVuSans-4c" transform="translate(544.1875 0)"/>
     <use xlink:href="#DejaVuSans-48" transform="translate(571.96875 0)"/>
     <use xlink:href="#DejaVuSans-5a" transform="translate(633.5 0)"/>
     <use xlink:href="#DejaVuSans-3" transform="translate(715.28125 0)"/>
     <use xlink:href="#DejaVuSans-79" transform="translate(747.0625 0)"/>
     <use xlink:href="#DejaVuSans-3" transform="translate(778.84375 0)"/>
     <use xlink:href="#DejaVuSans-19" transform="translate(810.625 0)"/>
     <use xlink:href="#DejaVuSans-10" transform="translate(874.25 0)"/>
     <use xlink:href="#DejaVuSans-4c" transform="translate(910.328125 0)"/>
     <use xlink:href="#DejaVuSans-51" transform="translate(938.109375 0)"/>
     <use xlink:href="#DejaVuSans-46" transform="translate(1001.484375 0)"/>
     <use xlink:href="#DejaVuSans-4b" transform="translate(1056.46875 0)"/>
     <use xlink:href="#DejaVuSans-3" transform="translate(1119.84375 0)"/>
     <use xlink:href="#DejaVuSans-57" transform="translate(1151.625 0)"/>
     <use xlink:href="#DejaVuSans-48" transform="translate(1190.828125 0)"/>
     <use xlink:href="#DejaVuSans-4f" transform="translate(1252.359375 0)"/>
     <use xlink:href="#DejaVuSans-48" transform="translate(1280.140625 0)"/>
     <use xlink:href="#DejaVuSans-56" transform="translate(1341.671875 0)"/>
     <use xlink:href="#DejaVuSans-46" transform="translate(1393.765625 0)"/>
     <use xlink:href="#DejaVuSans-52" transform="translate(1448.75 0)"/>
     <use xlink:href="#DejaVuSans-53" transform="translate(1509.9375 0)"/>
     <use xlink:href="#DejaVuSans-48" transform="translate(1573.421875 0)"/>
     <use xlink:href="#DejaVuSans-3" transform="translate(1634.953125 0)"/>
     <use xlink:href="#DejaVuSans-79" transform="translate(1666.734375 0)"/>
     <use xlink:href="#DejaVuSans-3" transform="translate(1698.515625 0)"/>
     <use xlink:href="#DejaVuSans-18" transform="translate(1730.296875 0)"/>
     <use xlink:href="#DejaVuSans-13" transform="translate(1793.921875 0)"/>
     <use xlink:href="#DejaVuSans-99" transform="translate(1857.546875 0)"/>
     <use xlink:href="#DejaVuSans-3" transform="translate(1941.34375 0)"/>
     <use xlink:href="#DejaVuSans-79" transform="translate(1973.125 0)"/>
     <use xlink:href="#DejaVuSans-3" transform="translate(2004.90625 0)"/>
     <use xlink:href="#DejaVuSans-14" transform="translate(2036.6875 0)"/>
     <use xlink:href="#DejaVuSans-11" transform="translate(2100.3125 0)"/>
     <use xlink:href="#DejaVuSans-15" transform="translate(2132.09375 0)"/>
     <use xlink:href="#DejaVuSans-72" transform="translate(2195.71875 0)"/>
     <use xlink:href="#DejaVuSans-3" transform="translate(2245.71875 0)"/>
     <use xlink:href="#DejaVuSans-13af" transform="translate(2277.5 0)"/>
     <use xlink:href="#DejaVuSans-48" transform="translate(2340.484375 0)"/>
     <use xlink:href="#DejaVuSans-4f" transform="translate(2402.015625 0)"/>
     <use xlink:href="#DejaVuSans-47" transform="translate(2429.796875 0)"/>
    </g>
   </g>
  </g>
 </g>
 <defs>
  <clipPath id="p043ecf887e">
   <rect x="52.483594" y="37.921641" width="434.514141" height="434.514141"/>
  </clipPath>
 </defs>
</svg>
